<svg width="336" height="322" viewBox="0 0 336 322" fill="none" xmlns="http://www.w3.org/2000/svg">
<g filter="url(#filter0_d_39631_2)">
<path fill-rule="evenodd" clip-rule="evenodd" d="M57.3335 94.0618C73.8488 60.3323 104.461 45.2946 141.796 41.461C177.969 37.7466 219.497 57.2224 245.403 82.7256C269.894 106.835 296.815 131.87 296.667 166.26C296.509 203.141 275.395 237.315 244.651 257.691C214.392 277.746 175.984 281.026 141.796 268.906C109.295 257.384 77.8425 244.171 65.4956 211.96C53.2803 180.093 42.3164 124.731 57.3335 94.0618Z" fill="url(#paint0_linear_39631_2)"/>
<path d="M171.089 115.002C156.414 122.106 159.71 138.924 163.193 146.445C152.114 146.445 141.488 127.424 137.56 117.914C126.181 118.933 100.459 118.467 88.6028 108.452C73.782 95.933 74.2679 58.8131 91.5184 32.7563C108.769 6.6996 250.174 28.5348 273.377 29.1171C296.58 29.6994 311.523 58.2308 297.674 99.5722C283.825 140.914 189.433 106.123 171.089 115.002Z" fill="white" stroke="#B1CCFF" stroke-width="2"/>
<path d="M202.528 263.998L209.158 266.557L219.421 259.036L188.616 216.015L155.183 189.6L202.528 263.998Z" fill="#808080"/>
<rect width="11.1861" height="6.30678" transform="matrix(-0.494434 -0.869215 0.86771 -0.497071 170.301 227.104)" fill="#C4C4C4"/>
<path d="M180.277 197.134L178.238 200.744L179.699 203.312L181.325 198.976L180.277 197.134Z" fill="#A7A7A7"/>
<rect width="11.1861" height="6.30678" transform="matrix(-0.494434 -0.869215 0.86771 -0.497071 163.337 214.86)" fill="#C4C4C4"/>
<path d="M212.769 271.65L208.85 266.852C219.138 256.542 228.529 253.023 231.939 252.552L234.115 256.378C223.288 262.103 215.373 268.945 212.769 271.65Z" fill="#A7A7A7"/>
<path d="M171.648 238.358L148.419 201.86C149.717 198.204 153.326 197.835 154.968 198.108L177.749 234.864C177.088 238.178 173.407 238.574 171.648 238.358Z" fill="#A7A7A7"/>
<path d="M150.762 177.54L132.74 149.726C133.742 143.876 138.465 144.248 140.702 145.165L159.207 173.776L150.762 177.54Z" fill="#9B9B9B"/>
<path d="M160.087 180.347L150.614 165.727C151.14 162.652 153.623 162.848 154.798 163.33L164.525 178.369L160.087 180.347Z" fill="#A7A7A7"/>
<path d="M147.285 186.693L149.561 183.062L154.861 192.38L151.024 193.265L147.285 186.693Z" fill="#C4C4C4"/>
<path d="M149.076 178.446L151.352 174.814L156.652 184.132L152.815 185.018L149.076 178.446Z" fill="#C4C4C4"/>
<path fill-rule="evenodd" clip-rule="evenodd" d="M180.034 203.518L185.952 212.378C186.249 210.756 187.219 207.767 188.728 208.789C190.614 210.066 202.909 207.738 204.463 206.131C206.017 204.525 199.276 187.08 196.475 190.206C193.681 193.325 168.357 185.957 167.92 185.382L167.917 185.378C167.918 185.38 167.919 185.381 167.92 185.382L173.409 193.6C180.39 194.892 191.173 196.48 194.143 195.259C198.632 193.414 199.018 200.063 196.587 201.018C194.55 201.82 184.168 203.37 180.034 203.518ZM159.403 171.664L161.444 170.495L169.962 182.804L167.316 184.32L159.403 171.664Z" fill="#A7A7A7"/>
<path d="M231.811 252.744L219.997 260.467L188.769 216.285L183.364 219.382L190.97 231.289L184.997 235.635L183.943 236.239L180.071 233.981L148.725 183.422L150.228 182.561C150.669 182.308 151.705 181.571 152.32 180.646C152.936 179.72 151.128 176.076 150.148 174.37L159.839 171.176L174.285 193.279C179.873 202.005 191.677 219.567 194.191 220.013C197.333 220.571 204.708 225.537 209.283 229.034C212.944 231.831 210.973 234.74 209.53 235.845C210.746 239.948 220.543 243.234 225.289 244.364L231.811 252.744Z" fill="#9B9B9B"/>
<path d="M155.967 193.36C165.489 193.36 171.653 196.879 173.544 198.638C181.739 216.219 152.777 229.13 150.404 232.547C148.031 235.965 143.358 231.029 140.948 231.029C138.538 231.029 138.389 229.51 134.125 227.991C129.86 226.472 132.271 220.624 128.192 220.055C124.113 219.485 125.967 216.257 121.739 214.928C117.512 213.599 121.554 209.84 116.733 209.081C111.912 208.321 116.362 205.093 112.654 203.575C108.946 202.056 110.207 200.051 110.207 196.74C110.207 191.196 136.312 171.413 136.313 173.728C145.42 175.004 153.21 187.348 155.967 193.36Z" fill="white"/>
<path d="M28.3257 139.42C122.53 139.42 123.955 171.561 134.374 172.985C142.609 176.228 149.807 186.098 112.723 199.632C109.329 198.276 111.399 196.581 107.327 196.412C103.255 196.242 108.685 188.987 100.37 191.699C92.0562 194.411 94.6353 190.513 89.2057 190.513C84.8619 190.513 85.3823 188.478 86.1854 187.461C84.8846 187.97 81.4005 188.478 77.8713 186.444C75.0465 184.816 77.9957 182.854 79.5474 182.045C75.9742 183.516 68.0607 180.203 66.3672 178.511C65.4094 177.554 68.1818 176.381 70.2598 175.724C65.9762 176.036 56.6927 174.549 55.3043 172.985C54.0283 171.547 58.3245 169.086 60.6321 168.035C56.1187 168.261 46.8883 168.374 46.0738 167.018C45.3805 165.863 50.0808 163.448 53.6017 161.904C47.1407 164.289 41.7002 162.497 39.6601 161.186C46.7639 157.084 58.9829 150.012 51.0284 154.541C43.074 159.071 37.3072 156.429 35.4181 154.541C42.3636 152.654 53.9808 148.879 44.8861 148.879C35.7914 148.879 27.8393 146.664 25 145.557C33.5178 144.924 48.3747 143.563 39.6601 143.184C30.9455 142.804 28.4727 140.517 28.3257 139.42Z" fill="white"/>
<path d="M201.033 192.356C191.511 192.356 185.347 195.875 183.456 197.635C175.261 215.216 204.223 228.126 206.596 231.544C208.969 234.961 213.642 230.025 216.052 230.025C218.462 230.025 218.611 228.506 222.875 226.987C227.14 225.468 224.729 219.621 228.808 219.051C232.887 218.481 231.033 215.254 235.261 213.925C239.488 212.596 235.446 208.836 240.267 208.077C245.088 207.318 240.638 204.09 244.346 202.571C248.054 201.052 246.793 199.047 246.793 195.736C246.793 190.192 220.688 170.409 220.687 172.725C211.58 174.001 203.79 186.344 201.033 192.356Z" fill="white"/>
<path d="M328.674 136.41C234.47 136.41 233.045 169.621 222.626 171.093C214.391 174.444 207.193 184.644 244.277 198.629C247.671 197.228 245.601 195.476 249.673 195.301C253.745 195.126 248.315 187.629 256.63 190.431C264.944 193.234 262.365 189.205 267.794 189.205C272.138 189.205 271.618 187.103 270.815 186.052C272.115 186.578 275.599 187.103 279.129 185.001C281.953 183.319 279.004 181.292 277.453 180.456C281.026 181.975 288.939 178.552 290.633 176.803C291.591 175.815 288.818 174.603 286.74 173.923C291.024 174.246 300.307 172.709 301.696 171.093C302.972 169.607 298.675 167.064 296.368 165.978C300.881 166.212 310.112 166.328 310.926 164.927C311.619 163.734 306.919 161.238 303.398 159.643C309.859 162.108 315.3 160.255 317.34 158.901C310.236 154.662 298.017 147.354 305.972 152.035C313.926 156.715 319.693 153.985 321.582 152.035C314.636 150.085 303.019 146.184 312.114 146.184C321.209 146.184 329.161 143.895 332 142.751C323.482 142.097 308.625 140.691 317.34 140.299C326.055 139.906 328.527 137.543 328.674 136.41Z" fill="white"/>
<path d="M158.455 198.395C165.095 194.26 171.246 158.276 173.492 140.8C180.241 139.759 192.81 138.301 189.088 140.8C184.435 143.923 185.44 149.092 182.35 165.191C179.261 181.291 189.088 193.71 202.078 203.043C215.068 212.375 204.125 242.976 193.74 262.682C183.355 282.389 173.492 280.864 154.807 275.138C136.122 269.412 141.817 250.784 141.817 230.557C141.817 210.33 150.154 203.563 158.455 198.395Z" fill="white"/>
<path d="M154.079 287.493C159.538 277.655 157.635 272.547 156.001 271.223C152.549 269.747 152.314 273.077 152.039 281.401C151.765 289.726 148.47 294.342 146.705 296.348C144.94 298.353 135.331 301.759 137.253 302.44C138.79 302.985 142.077 301.254 143.528 300.321C142.116 302.742 140.775 306.42 146.705 301.759C154.118 295.931 162.864 300.964 163.806 300.321C164.559 299.806 162.943 298.517 162.041 297.937C160.668 297.71 157.154 297.074 154.079 296.348C151.004 295.621 152.798 290.142 154.079 287.493Z" fill="#FF6B0A"/>
<path d="M180.554 287.493C175.296 277.655 177.129 272.547 178.703 271.223C182.027 269.747 182.253 273.077 182.518 281.401C182.782 289.726 185.955 294.342 187.654 296.348C189.354 298.353 198.607 301.759 196.757 302.44C195.276 302.985 192.111 301.254 190.714 300.321C192.073 302.742 193.365 306.42 187.654 301.759C180.516 295.931 172.094 300.964 171.187 300.321C170.462 299.806 172.018 298.517 172.887 297.937C174.209 297.71 177.593 297.074 180.554 296.348C183.515 295.621 181.788 290.142 180.554 287.493Z" fill="#FF6B0A"/>
<path d="M174.178 126.623C174.386 121.261 179.508 121.236 182.044 121.894C188.871 120.362 187.943 129.787 189.501 131.724C191.06 133.66 190.948 135.559 190.429 141.218C189.909 146.878 182.044 151.867 177.999 151.309C173.955 150.75 171.321 145.016 169.725 139.245C168.13 133.474 173.918 133.325 174.178 126.623Z" fill="white"/>
<ellipse rx="1.33472" ry="2.1042" transform="matrix(-0.97872 0.2052 0.203817 0.979009 188.102 128.915)" fill="#0D070C"/>
<ellipse rx="1.33459" ry="2.1044" transform="matrix(0.992628 0.121198 -0.120358 0.99273 173.973 129.151)" fill="#0D070C"/>
<ellipse rx="3.22694" ry="4.55651" transform="matrix(0.920356 0.391081 -0.388748 0.921344 187.207 138.864)" fill="url(#paint1_radial_39631_2)"/>
<ellipse rx="3.22899" ry="4.55363" transform="matrix(0.816371 -0.577528 0.574813 0.818285 173.546 138.399)" fill="url(#paint2_radial_39631_2)"/>
<ellipse opacity="0.2" rx="0.598672" ry="0.942772" transform="matrix(-0.894446 0.447177 0.444656 0.895701 174.024 128.45)" fill="white"/>
<ellipse opacity="0.2" rx="0.598672" ry="0.942772" transform="matrix(-0.894446 0.447177 0.444656 0.895701 188.136 128.062)" fill="white"/>
<path d="M186.476 132.345C186.5 125.68 180.094 124.841 180.125 124.922C173.804 126.913 174.621 132.623 174.884 133.461C175.606 135.77 171.816 138 173.078 140.384C174.339 142.769 174.538 147.838 175.64 151.334C176.316 153.476 177.231 154.23 177.862 154.404C177.696 154.413 177.766 154.419 177.934 154.422C178.096 154.457 178.238 154.453 178.347 154.426C178.193 154.425 178.043 154.424 177.934 154.422C177.91 154.417 177.887 154.411 177.862 154.404C178.081 154.393 178.709 154.376 180.061 154.353C183.875 154.286 183.901 149.258 186.944 143.384C189.987 137.509 186.447 140.676 186.476 132.345Z" fill="#FF6B0A"/>
<path d="M179.958 151.916C182.995 151.518 183.691 144.687 183.66 141.321C181.77 140.987 177.685 140.58 176.47 141.628C174.951 142.937 176.163 152.412 179.958 151.916Z" fill="#1F0C02"/>
<path d="M179.303 151.082C177.158 150.905 177.633 146.19 178.138 143.855L182.281 143.678C182.182 146.22 181.447 151.259 179.303 151.082Z" fill="#956C7C"/>
<path d="M179.468 149.395C179.014 149.098 179.461 144.433 179.742 142.138L180.656 142.196C180.449 144.72 179.922 149.692 179.468 149.395Z" fill="#86616F"/>
<path d="M184.789 138.688C182.546 134.379 183.643 131.891 184.472 131.186C181.092 127.079 177.508 129.711 176.138 131.541C178.749 135.738 176.794 132.375 175.503 139.084C174.471 144.451 178.043 146.109 179.958 146.267C182.503 145.536 187.032 142.997 184.789 138.688Z" fill="#EA5F03"/>
<path d="M175.337 141.313C179.932 134.453 183.738 139.168 185.066 142.382C184.679 143.739 183.091 146.421 179.841 146.291C176.592 146.162 175.485 142.918 175.337 141.313Z" fill="#EFE5D5"/>
<path d="M180.744 140.243C180.773 139.674 180.92 138.619 181.271 138.945C181.622 139.272 181.066 139.947 180.744 140.243Z" fill="#DACAB0"/>
<path d="M179.67 140.291C179.682 139.721 179.612 138.658 179.238 138.958C178.864 139.258 179.371 139.972 179.67 140.291Z" fill="#DACAB0"/>
<path d="M176.853 117.741L176.627 122.612C179.382 125.054 184.24 123.908 186.325 123.03L186.482 118.063L176.853 117.741Z" fill="#373500"/>
<path d="M176.627 122.612C177.349 125.208 180.347 128.684 186.314 122.995L176.627 122.612Z" fill="#373500"/>
<ellipse rx="4.8281" ry="0.834145" transform="matrix(-0.998985 -0.0279921 -0.02783 1.00023 181.656 117.904)" fill="#373500"/>
<path d="M176.853 117.741L176.627 122.612C179.382 125.054 184.24 123.908 186.325 123.03L186.482 118.063C186.482 118.063 185.703 118.205 185.2 118.194C184.598 118.181 183.679 117.932 183.679 117.932L180.883 122.169L179.46 117.622C179.46 117.622 178.686 118.015 178.151 118.035C177.632 118.054 176.853 117.741 176.853 117.741Z" fill="#4B4800"/>
<path d="M181.958 118.477C181.935 118.488 181.915 118.497 181.898 118.508C181.751 118.597 181.657 118.707 181.611 118.871C181.591 118.94 181.579 119.013 181.565 119.083C181.552 119.145 181.539 119.205 181.524 119.267C181.521 119.283 181.522 119.29 181.541 119.294C181.58 119.302 181.612 119.324 181.624 119.363C181.636 119.398 181.627 119.43 181.604 119.456C181.58 119.483 181.547 119.492 181.512 119.489C181.495 119.488 181.484 119.48 181.476 119.462C181.415 119.333 181.385 119.196 181.381 119.053C181.378 118.935 181.399 118.819 181.415 118.703C181.423 118.637 181.43 118.57 181.441 118.505C181.447 118.463 181.45 118.424 181.443 118.382C181.437 118.34 181.422 118.302 181.396 118.265C181.363 118.294 181.339 118.329 181.327 118.368C181.317 118.406 181.31 118.446 181.306 118.484C181.3 118.526 181.301 118.568 181.298 118.609C181.291 118.717 181.286 118.825 181.275 118.933C181.257 119.113 181.195 119.276 181.089 119.421C181.075 119.441 181.058 119.445 181.036 119.441C180.981 119.431 180.943 119.384 180.948 119.332C180.953 119.283 181 119.243 181.055 119.246C181.075 119.247 181.077 119.24 181.076 119.224C181.074 119.138 181.073 119.051 181.072 118.966C181.069 118.869 181.073 118.772 181.042 118.678C181.001 118.553 180.932 118.466 180.829 118.384C180.821 118.379 180.813 118.373 180.802 118.365C180.801 118.376 180.801 118.383 180.8 118.39C180.757 118.838 180.715 119.268 180.672 119.717C180.669 119.742 180.669 119.742 180.694 119.744C180.786 119.753 180.879 119.762 180.97 119.771C180.987 119.773 180.993 119.778 180.995 119.795C181.01 119.92 181.063 120.028 181.157 120.115C181.176 120.133 181.193 120.155 181.21 120.176C181.269 120.121 181.346 120.086 181.397 120.02C181.438 119.965 181.473 119.907 181.493 119.841C181.498 119.826 181.505 119.822 181.519 119.823C181.613 119.833 181.706 119.842 181.8 119.851C181.816 119.852 181.824 119.849 181.825 119.831C181.869 119.38 181.911 118.947 181.954 118.496C181.957 118.494 181.957 118.489 181.958 118.477ZM181.836 118.673C181.838 118.674 181.842 118.675 181.844 118.676C181.843 118.684 181.843 118.692 181.842 118.7C181.821 118.917 181.802 119.116 181.781 119.333C181.777 119.369 181.777 119.369 181.74 119.365C181.726 119.364 181.72 119.36 181.717 119.346C181.708 119.301 181.683 119.266 181.647 119.242C181.631 119.231 181.63 119.22 181.634 119.204C181.652 119.125 181.671 119.045 181.686 118.966C181.702 118.883 181.727 118.822 181.776 118.754C181.795 118.725 181.816 118.7 181.836 118.673ZM180.879 118.583C180.881 118.584 180.882 118.583 180.884 118.583C180.891 118.593 180.897 118.603 180.902 118.612C180.94 118.686 180.972 118.744 180.976 118.828C180.98 118.934 180.981 119.039 180.984 119.144C180.985 119.159 180.981 119.168 180.966 119.174C180.925 119.193 180.894 119.221 180.875 119.263C180.866 119.282 180.853 119.285 180.823 119.276C180.805 119.271 180.814 119.258 180.815 119.247C180.836 119.027 180.855 118.824 180.877 118.603C180.876 118.596 180.877 118.589 180.879 118.583ZM181.52 119.586C181.525 119.585 181.533 119.585 181.541 119.583C181.616 119.574 181.676 119.544 181.707 119.471C181.711 119.461 181.716 119.457 181.726 119.459C181.735 119.46 181.743 119.46 181.751 119.461C181.763 119.462 181.767 119.467 181.766 119.479C181.757 119.566 181.749 119.654 181.739 119.741C181.739 119.745 181.728 119.755 181.724 119.754C181.661 119.749 181.597 119.743 181.534 119.736C181.53 119.736 181.521 119.727 181.521 119.722C181.52 119.677 181.52 119.633 181.52 119.586ZM181.022 119.538C181.013 119.584 181.003 119.627 180.994 119.672C180.992 119.684 180.982 119.684 180.973 119.683C180.914 119.677 180.856 119.67 180.796 119.665C180.778 119.664 180.773 119.656 180.776 119.639C180.784 119.561 180.791 119.484 180.798 119.405C180.802 119.369 180.802 119.369 180.838 119.372C180.848 119.373 180.857 119.374 180.86 119.387C180.874 119.458 180.92 119.5 180.984 119.526C180.997 119.531 181.011 119.533 181.022 119.538ZM181.3 119.235C181.324 119.327 181.348 119.417 181.39 119.503C181.352 119.524 181.316 119.544 181.279 119.563C181.274 119.566 181.263 119.562 181.257 119.558C181.229 119.537 181.203 119.513 181.174 119.492C181.166 119.485 181.164 119.479 181.171 119.469C181.221 119.403 181.257 119.329 181.29 119.253C181.294 119.247 181.297 119.24 181.3 119.235ZM181.396 119.814C181.394 119.874 181.319 119.989 181.279 120C181.278 119.999 181.277 119.998 181.277 119.998C181.283 119.937 181.287 119.877 181.294 119.818C181.295 119.813 181.304 119.807 181.308 119.806C181.338 119.807 181.366 119.811 181.396 119.814ZM181.181 119.993C181.134 119.959 181.088 119.829 181.101 119.784C181.126 119.786 181.154 119.789 181.18 119.792C181.195 119.793 181.199 119.799 181.197 119.813C181.193 119.862 181.188 119.911 181.183 119.959C181.183 119.97 181.182 119.98 181.181 119.993ZM181.364 119.718C181.349 119.717 181.332 119.716 181.317 119.713C181.313 119.712 181.304 119.702 181.306 119.699C181.318 119.648 181.354 119.607 181.404 119.601C181.415 119.599 181.421 119.602 181.422 119.613C181.424 119.645 181.424 119.676 181.426 119.709C181.426 119.721 181.418 119.725 181.408 119.724C181.394 119.721 181.379 119.72 181.364 119.718ZM181.15 119.697C181.136 119.696 181.123 119.695 181.109 119.694C181.095 119.693 181.088 119.687 181.091 119.672C181.098 119.643 181.104 119.615 181.111 119.586C181.115 119.572 181.122 119.57 181.136 119.576C181.179 119.593 181.214 119.644 181.211 119.689C181.21 119.694 181.201 119.701 181.196 119.702C181.18 119.702 181.165 119.699 181.15 119.697Z" fill="#FFD500"/>
<path d="M166.066 181.362C173.597 184.1 179.772 181.656 183.393 179.984L184.283 182.553C176.128 186.927 169.022 185.414 165.435 183.782L166.066 181.362Z" fill="#005BBB"/>
<path d="M165.398 183.931C174.425 187.552 180.712 184.298 184.357 182.665L185.396 185.234C177.172 189.522 168.349 187.656 164.804 185.979L165.398 183.931Z" fill="#FFD500"/>
<path d="M164.997 185.481C159.664 185.467 150.6 189.263 156.942 203.155C163.237 216.944 163.917 226.136 160.025 224.926C159.997 224.915 159.968 224.906 159.938 224.897C159.967 224.907 159.996 224.917 160.025 224.926C161.1 225.342 160.409 227.57 160.917 228.348C165.336 228.645 166.128 220.065 157.626 202.873C155.619 198.261 154.806 188.79 164.304 187.794L164.997 185.481Z" fill="#FFD500"/>
<path d="M165.986 182.135C160.624 181.231 154.671 181.487 159.46 196.655C164.201 211.668 157.87 211.496 154.003 209.492C153.966 209.469 153.926 209.448 153.883 209.429C153.923 209.45 153.963 209.471 154.003 209.492C154.948 210.067 153.633 211.431 154.05 212.295C158.461 213.334 165.861 211.625 160.18 196.483C158.689 191.464 155.731 183.47 165.398 184.044L165.986 182.135Z" fill="#005BBB"/>
<path d="M141.5 231.244C184.807 259.244 192.893 217.865 191.273 193.762L194 192.608H197.283C201.291 256.293 160.311 252.657 141.5 239.774V231.244Z" fill="#9B9B9B"/>
<path d="M142.243 59.16C141.39 59.16 140.595 59.0213 139.859 58.744C139.134 58.456 138.499 58.056 137.955 57.544C137.422 57.0213 137.006 56.408 136.707 55.704C136.409 55 136.259 54.232 136.259 53.4C136.259 52.568 136.409 51.8 136.707 51.096C137.006 50.392 137.427 49.784 137.971 49.272C138.515 48.7493 139.15 48.3493 139.875 48.072C140.601 47.784 141.395 47.64 142.259 47.64C143.177 47.64 144.014 47.8 144.771 48.12C145.529 48.4293 146.169 48.8933 146.691 49.512L145.347 50.776C144.942 50.3387 144.489 50.0133 143.987 49.8C143.486 49.576 142.942 49.464 142.355 49.464C141.769 49.464 141.23 49.56 140.739 49.752C140.259 49.944 139.838 50.216 139.475 50.568C139.123 50.92 138.846 51.336 138.643 51.816C138.451 52.296 138.355 52.824 138.355 53.4C138.355 53.976 138.451 54.504 138.643 54.984C138.846 55.464 139.123 55.88 139.475 56.232C139.838 56.584 140.259 56.856 140.739 57.048C141.23 57.24 141.769 57.336 142.355 57.336C142.942 57.336 143.486 57.2293 143.987 57.016C144.489 56.792 144.942 56.456 145.347 56.008L146.691 57.288C146.169 57.896 145.529 58.36 144.771 58.68C144.014 59 143.171 59.16 142.243 59.16ZM146.823 58.984L146.919 57.304C146.993 57.3147 147.063 57.3253 147.127 57.336C147.191 57.3467 147.249 57.352 147.303 57.352C147.633 57.352 147.889 57.2507 148.071 57.048C148.252 56.8453 148.385 56.5733 148.471 56.232C148.567 55.88 148.631 55.4907 148.663 55.064C148.705 54.6267 148.737 54.1893 148.759 53.752L148.903 50.456H155.815V59H153.815V51.608L154.279 52.152H150.215L150.647 51.592L150.535 53.848C150.503 54.6053 150.439 55.3093 150.343 55.96C150.257 56.6 150.119 57.16 149.927 57.64C149.745 58.12 149.489 58.4933 149.159 58.76C148.839 59.0267 148.428 59.16 147.927 59.16C147.767 59.16 147.591 59.144 147.399 59.112C147.217 59.08 147.025 59.0373 146.823 58.984ZM163.692 59V57.272L163.58 56.904V53.88C163.58 53.2933 163.404 52.84 163.052 52.52C162.7 52.1893 162.167 52.024 161.452 52.024C160.972 52.024 160.497 52.0987 160.028 52.248C159.569 52.3973 159.18 52.6053 158.86 52.872L158.076 51.416C158.535 51.064 159.079 50.8027 159.708 50.632C160.348 50.4507 161.009 50.36 161.692 50.36C162.929 50.36 163.884 50.6587 164.556 51.256C165.239 51.8427 165.58 52.7547 165.58 53.992V59H163.692ZM161.004 59.112C160.364 59.112 159.804 59.0053 159.324 58.792C158.844 58.568 158.471 58.264 158.204 57.88C157.948 57.4853 157.82 57.0427 157.82 56.552C157.82 56.072 157.932 55.64 158.156 55.256C158.391 54.872 158.769 54.568 159.292 54.344C159.815 54.12 160.508 54.008 161.372 54.008H163.852V55.336H161.516C160.833 55.336 160.375 55.448 160.14 55.672C159.905 55.8853 159.788 56.152 159.788 56.472C159.788 56.8347 159.932 57.1227 160.22 57.336C160.508 57.5493 160.908 57.656 161.42 57.656C161.911 57.656 162.348 57.544 162.732 57.32C163.127 57.096 163.409 56.7653 163.58 56.328L163.916 57.528C163.724 58.0293 163.377 58.4187 162.876 58.696C162.385 58.9733 161.761 59.112 161.004 59.112ZM168.055 59V50.456H172.231C173.266 50.456 174.076 50.648 174.663 51.032C175.26 51.416 175.559 51.96 175.559 52.664C175.559 53.3573 175.282 53.9013 174.727 54.296C174.172 54.68 173.436 54.872 172.519 54.872L172.759 54.376C173.794 54.376 174.562 54.568 175.063 54.952C175.575 55.3253 175.831 55.8747 175.831 56.6C175.831 57.3573 175.548 57.9493 174.983 58.376C174.418 58.792 173.559 59 172.407 59H168.055ZM169.959 57.544H172.247C172.791 57.544 173.202 57.4587 173.479 57.288C173.756 57.1067 173.895 56.8347 173.895 56.472C173.895 56.088 173.767 55.8053 173.511 55.624C173.255 55.4427 172.855 55.352 172.311 55.352H169.959V57.544ZM169.959 54.024H172.055C172.567 54.024 172.951 53.9333 173.207 53.752C173.474 53.56 173.607 53.2933 173.607 52.952C173.607 52.6 173.474 52.3387 173.207 52.168C172.951 51.9973 172.567 51.912 172.055 51.912H169.959V54.024ZM183.145 59V57.272L183.033 56.904V53.88C183.033 53.2933 182.857 52.84 182.505 52.52C182.153 52.1893 181.62 52.024 180.905 52.024C180.425 52.024 179.951 52.0987 179.481 52.248C179.023 52.3973 178.633 52.6053 178.313 52.872L177.529 51.416C177.988 51.064 178.532 50.8027 179.161 50.632C179.801 50.4507 180.463 50.36 181.145 50.36C182.383 50.36 183.337 50.6587 184.009 51.256C184.692 51.8427 185.033 52.7547 185.033 53.992V59H183.145ZM180.457 59.112C179.817 59.112 179.257 59.0053 178.777 58.792C178.297 58.568 177.924 58.264 177.657 57.88C177.401 57.4853 177.273 57.0427 177.273 56.552C177.273 56.072 177.385 55.64 177.609 55.256C177.844 54.872 178.223 54.568 178.745 54.344C179.268 54.12 179.961 54.008 180.825 54.008H183.305V55.336H180.969C180.287 55.336 179.828 55.448 179.593 55.672C179.359 55.8853 179.241 56.152 179.241 56.472C179.241 56.8347 179.385 57.1227 179.673 57.336C179.961 57.5493 180.361 57.656 180.873 57.656C181.364 57.656 181.801 57.544 182.185 57.32C182.58 57.096 182.863 56.7653 183.033 56.328L183.369 57.528C183.177 58.0293 182.831 58.4187 182.329 58.696C181.839 58.9733 181.215 59.112 180.457 59.112ZM192.314 57.24C192.901 57.4427 193.418 57.496 193.866 57.4C194.314 57.304 194.714 56.9787 195.066 56.424L195.61 55.576L195.818 55.352L199.722 47.8H201.77L196.906 56.84C196.511 57.5973 196.042 58.1733 195.498 58.568C194.954 58.9627 194.367 59.1813 193.738 59.224C193.119 59.2773 192.474 59.16 191.802 58.872L192.314 57.24ZM195.77 57.144L190.778 47.8H193.002L196.906 55.544L195.77 57.144ZM208.792 59L205.704 54.904L207.336 53.896L211.144 59H208.792ZM202.664 59V50.456H204.664V59H202.664ZM204.072 55.576V53.912H206.968V55.576H204.072ZM207.528 54.968L205.656 54.744L208.792 50.456H210.936L207.528 54.968ZM217.291 59.112C216.598 59.112 215.963 58.952 215.387 58.632C214.822 58.312 214.368 57.832 214.027 57.192C213.696 56.5413 213.531 55.72 213.531 54.728C213.531 53.7253 213.691 52.904 214.011 52.264C214.342 51.624 214.79 51.1493 215.355 50.84C215.92 50.52 216.566 50.36 217.291 50.36C218.134 50.36 218.875 50.5413 219.515 50.904C220.166 51.2667 220.678 51.7733 221.051 52.424C221.435 53.0747 221.627 53.8427 221.627 54.728C221.627 55.6133 221.435 56.3867 221.051 57.048C220.678 57.6987 220.166 58.2053 219.515 58.568C218.875 58.9307 218.134 59.112 217.291 59.112ZM212.555 62.104V50.456H214.459V52.472L214.395 54.744L214.555 57.016V62.104H212.555ZM217.067 57.4C217.547 57.4 217.974 57.2933 218.347 57.08C218.731 56.8667 219.035 56.5573 219.259 56.152C219.483 55.7467 219.595 55.272 219.595 54.728C219.595 54.1733 219.483 53.6987 219.259 53.304C219.035 52.8987 218.731 52.5893 218.347 52.376C217.974 52.1627 217.547 52.056 217.067 52.056C216.587 52.056 216.155 52.1627 215.771 52.376C215.387 52.5893 215.083 52.8987 214.859 53.304C214.635 53.6987 214.523 54.1733 214.523 54.728C214.523 55.272 214.635 55.7467 214.859 56.152C215.083 56.5573 215.387 56.8667 215.771 57.08C216.155 57.2933 216.587 57.4 217.067 57.4ZM228.692 59V57.272L228.58 56.904V53.88C228.58 53.2933 228.404 52.84 228.052 52.52C227.7 52.1893 227.167 52.024 226.452 52.024C225.972 52.024 225.497 52.0987 225.028 52.248C224.569 52.3973 224.18 52.6053 223.86 52.872L223.076 51.416C223.535 51.064 224.079 50.8027 224.708 50.632C225.348 50.4507 226.009 50.36 226.692 50.36C227.929 50.36 228.884 50.6587 229.556 51.256C230.239 51.8427 230.58 52.7547 230.58 53.992V59H228.692ZM226.004 59.112C225.364 59.112 224.804 59.0053 224.324 58.792C223.844 58.568 223.471 58.264 223.204 57.88C222.948 57.4853 222.82 57.0427 222.82 56.552C222.82 56.072 222.932 55.64 223.156 55.256C223.391 54.872 223.769 54.568 224.292 54.344C224.815 54.12 225.508 54.008 226.372 54.008H228.852V55.336H226.516C225.833 55.336 225.375 55.448 225.14 55.672C224.905 55.8853 224.788 56.152 224.788 56.472C224.788 56.8347 224.932 57.1227 225.22 57.336C225.508 57.5493 225.908 57.656 226.42 57.656C226.911 57.656 227.348 57.544 227.732 57.32C228.127 57.096 228.409 56.7653 228.58 56.328L228.916 57.528C228.724 58.0293 228.377 58.4187 227.876 58.696C227.385 58.9733 226.761 59.112 226.004 59.112ZM233.023 59V50.456H235.023V59H233.023ZM235.263 49.096C234.996 49.096 234.772 49.0053 234.591 48.824C234.42 48.6427 234.335 48.4187 234.335 48.152C234.335 47.8853 234.42 47.6613 234.591 47.48C234.772 47.288 234.996 47.192 235.263 47.192C235.519 47.192 235.732 47.2827 235.903 47.464C236.084 47.6453 236.175 47.8747 236.175 48.152C236.175 48.4293 236.084 48.6587 235.903 48.84C235.732 49.0107 235.519 49.096 235.263 49.096ZM232.815 49.096C232.548 49.096 232.324 49.0053 232.143 48.824C231.972 48.6427 231.887 48.4187 231.887 48.152C231.887 47.8853 231.972 47.6613 232.143 47.48C232.324 47.288 232.548 47.192 232.815 47.192C233.071 47.192 233.284 47.2827 233.455 47.464C233.636 47.6453 233.727 47.8747 233.727 48.152C233.727 48.4293 233.636 48.6587 233.455 48.84C233.284 49.0107 233.071 49.096 232.815 49.096ZM237.68 59V50.456H239.68V53.928H243.984V50.456H245.984V59H243.984V55.624H239.68V59H237.68ZM248.664 59V50.456H250.664V59H248.664ZM249.672 49.048C249.299 49.048 248.99 48.9307 248.744 48.696C248.51 48.4613 248.392 48.1787 248.392 47.848C248.392 47.5067 248.51 47.224 248.744 47C248.99 46.7653 249.299 46.648 249.672 46.648C250.046 46.648 250.35 46.76 250.584 46.984C250.83 47.1973 250.952 47.4693 250.952 47.8C250.952 48.152 250.835 48.4507 250.6 48.696C250.366 48.9307 250.056 49.048 249.672 49.048ZM253.463 55.288L253.079 47.8H255.447L255.047 55.288H253.463ZM254.263 59.112C253.89 59.112 253.581 58.9893 253.335 58.744C253.09 58.4987 252.967 58.2053 252.967 57.864C252.967 57.5227 253.09 57.2347 253.335 57C253.581 56.7547 253.89 56.632 254.263 56.632C254.637 56.632 254.941 56.7547 255.175 57C255.41 57.2347 255.527 57.5227 255.527 57.864C255.527 58.2053 255.41 58.4987 255.175 58.744C254.941 58.9893 254.637 59.112 254.263 59.112ZM138.303 83V71.8H145.903L145.887 73.56H139.855L140.335 73.064L140.351 83H138.303ZM149.094 83.112C148.144 83.112 147.312 82.9253 146.598 82.552C145.894 82.168 145.344 81.6453 144.95 80.984C144.566 80.3227 144.374 79.5707 144.374 78.728C144.374 77.8747 144.56 77.1227 144.934 76.472C145.318 75.8107 145.84 75.2933 146.502 74.92C147.174 74.5467 147.936 74.36 148.79 74.36C149.622 74.36 150.363 74.5413 151.014 74.904C151.664 75.2667 152.176 75.7787 152.55 76.44C152.923 77.1013 153.11 77.88 153.11 78.776C153.11 78.8613 153.104 78.9573 153.094 79.064C153.094 79.1707 153.088 79.272 153.078 79.368H145.958V78.04H152.022L151.238 78.456C151.248 77.9653 151.147 77.5333 150.934 77.16C150.72 76.7867 150.427 76.4933 150.054 76.28C149.691 76.0667 149.27 75.96 148.79 75.96C148.299 75.96 147.867 76.0667 147.494 76.28C147.131 76.4933 146.843 76.792 146.63 77.176C146.427 77.5493 146.326 77.992 146.326 78.504V78.824C146.326 79.336 146.443 79.7893 146.678 80.184C146.912 80.5787 147.243 80.8827 147.67 81.096C148.096 81.3093 148.587 81.416 149.142 81.416C149.622 81.416 150.054 81.3413 150.438 81.192C150.822 81.0427 151.163 80.808 151.462 80.488L152.534 81.72C152.15 82.168 151.664 82.5147 151.078 82.76C150.502 82.9947 149.84 83.112 149.094 83.112ZM160.033 83.112C159.34 83.112 158.705 82.952 158.129 82.632C157.564 82.312 157.11 81.832 156.769 81.192C156.438 80.5413 156.273 79.72 156.273 78.728C156.273 77.7253 156.433 76.904 156.753 76.264C157.084 75.624 157.532 75.1493 158.097 74.84C158.662 74.52 159.308 74.36 160.033 74.36C160.876 74.36 161.617 74.5413 162.257 74.904C162.908 75.2667 163.42 75.7733 163.793 76.424C164.177 77.0747 164.369 77.8427 164.369 78.728C164.369 79.6133 164.177 80.3867 163.793 81.048C163.42 81.6987 162.908 82.2053 162.257 82.568C161.617 82.9307 160.876 83.112 160.033 83.112ZM155.297 86.104V74.456H157.201V76.472L157.137 78.744L157.297 81.016V86.104H155.297ZM159.809 81.4C160.289 81.4 160.716 81.2933 161.089 81.08C161.473 80.8667 161.777 80.5573 162.001 80.152C162.225 79.7467 162.337 79.272 162.337 78.728C162.337 78.1733 162.225 77.6987 162.001 77.304C161.777 76.8987 161.473 76.5893 161.089 76.376C160.716 76.1627 160.289 76.056 159.809 76.056C159.329 76.056 158.897 76.1627 158.513 76.376C158.129 76.5893 157.825 76.8987 157.601 77.304C157.377 77.6987 157.265 78.1733 157.265 78.728C157.265 79.272 157.377 79.7467 157.601 80.152C157.825 80.5573 158.129 80.8667 158.513 81.08C158.897 81.2933 159.329 81.4 159.809 81.4ZM170.168 83.112C169.293 83.112 168.514 82.9253 167.832 82.552C167.149 82.168 166.61 81.6453 166.216 80.984C165.821 80.3227 165.624 79.5707 165.624 78.728C165.624 77.8747 165.821 77.1227 166.216 76.472C166.61 75.8107 167.149 75.2933 167.832 74.92C168.514 74.5467 169.293 74.36 170.168 74.36C171.053 74.36 171.837 74.5467 172.52 74.92C173.213 75.2933 173.752 75.8053 174.136 76.456C174.53 77.1067 174.728 77.864 174.728 78.728C174.728 79.5707 174.53 80.3227 174.136 80.984C173.752 81.6453 173.213 82.168 172.52 82.552C171.837 82.9253 171.053 83.112 170.168 83.112ZM170.168 81.4C170.658 81.4 171.096 81.2933 171.48 81.08C171.864 80.8667 172.162 80.5573 172.376 80.152C172.6 79.7467 172.712 79.272 172.712 78.728C172.712 78.1733 172.6 77.6987 172.376 77.304C172.162 76.8987 171.864 76.5893 171.48 76.376C171.096 76.1627 170.664 76.056 170.184 76.056C169.693 76.056 169.256 76.1627 168.872 76.376C168.498 76.5893 168.2 76.8987 167.976 77.304C167.752 77.6987 167.64 78.1733 167.64 78.728C167.64 79.272 167.752 79.7467 167.976 80.152C168.2 80.5573 168.498 80.8667 168.872 81.08C169.256 81.2933 169.688 81.4 170.168 81.4ZM181.846 83V80.088L182.134 80.424H179.574C178.401 80.424 177.478 80.1787 176.806 79.688C176.145 79.1867 175.814 78.4667 175.814 77.528C175.814 76.5253 176.166 75.7627 176.87 75.24C177.585 74.7173 178.534 74.456 179.718 74.456H183.638V83H181.846ZM175.702 83L178.006 79.736H180.054L177.846 83H175.702ZM181.846 79.448V75.608L182.134 76.136H179.782C179.163 76.136 178.683 76.2533 178.342 76.488C178.011 76.712 177.846 77.08 177.846 77.592C177.846 78.552 178.47 79.032 179.718 79.032H182.134L181.846 79.448ZM186.328 83V74.456H188.424L191.864 80.52H191.032L194.648 74.456H196.52L196.536 83H194.728V76.6L195.048 76.808L191.848 82.104H190.984L187.768 76.664L188.152 76.568V83H186.328ZM207.529 83.112C206.633 83.112 205.833 82.9253 205.129 82.552C204.436 82.168 203.892 81.6453 203.497 80.984C203.102 80.3227 202.905 79.5707 202.905 78.728C202.905 77.8747 203.102 77.1227 203.497 76.472C203.892 75.8107 204.436 75.2933 205.129 74.92C205.833 74.5467 206.633 74.36 207.529 74.36C208.361 74.36 209.092 74.5307 209.721 74.872C210.361 75.2027 210.846 75.6933 211.177 76.344L209.641 77.24C209.385 76.8347 209.07 76.536 208.697 76.344C208.334 76.152 207.94 76.056 207.513 76.056C207.022 76.056 206.58 76.1627 206.185 76.376C205.79 76.5893 205.481 76.8987 205.257 77.304C205.033 77.6987 204.921 78.1733 204.921 78.728C204.921 79.2827 205.033 79.7627 205.257 80.168C205.481 80.5627 205.79 80.8667 206.185 81.08C206.58 81.2933 207.022 81.4 207.513 81.4C207.94 81.4 208.334 81.304 208.697 81.112C209.07 80.92 209.385 80.6213 209.641 80.216L211.177 81.112C210.846 81.752 210.361 82.248 209.721 82.6C209.092 82.9413 208.361 83.112 207.529 83.112ZM211.487 82.984L211.583 81.304C211.657 81.3147 211.727 81.3253 211.791 81.336C211.855 81.3467 211.913 81.352 211.967 81.352C212.297 81.352 212.553 81.2507 212.735 81.048C212.916 80.8453 213.049 80.5733 213.135 80.232C213.231 79.88 213.295 79.4907 213.327 79.064C213.369 78.6267 213.401 78.1893 213.423 77.752L213.567 74.456H220.479V83H218.479V75.608L218.943 76.152H214.879L215.311 75.592L215.199 77.848C215.167 78.6053 215.103 79.3093 215.007 79.96C214.921 80.6 214.783 81.16 214.591 81.64C214.409 82.12 214.153 82.4933 213.823 82.76C213.503 83.0267 213.092 83.16 212.591 83.16C212.431 83.16 212.255 83.144 212.063 83.112C211.881 83.08 211.689 83.0373 211.487 82.984ZM228.356 83V81.272L228.244 80.904V77.88C228.244 77.2933 228.068 76.84 227.716 76.52C227.364 76.1893 226.831 76.024 226.116 76.024C225.636 76.024 225.161 76.0987 224.692 76.248C224.233 76.3973 223.844 76.6053 223.524 76.872L222.74 75.416C223.199 75.064 223.743 74.8027 224.372 74.632C225.012 74.4507 225.673 74.36 226.356 74.36C227.593 74.36 228.548 74.6587 229.22 75.256C229.903 75.8427 230.244 76.7547 230.244 77.992V83H228.356ZM225.668 83.112C225.028 83.112 224.468 83.0053 223.988 82.792C223.508 82.568 223.135 82.264 222.868 81.88C222.612 81.4853 222.484 81.0427 222.484 80.552C222.484 80.072 222.596 79.64 222.82 79.256C223.055 78.872 223.433 78.568 223.956 78.344C224.479 78.12 225.172 78.008 226.036 78.008H228.516V79.336H226.18C225.497 79.336 225.039 79.448 224.804 79.672C224.569 79.8853 224.452 80.152 224.452 80.472C224.452 80.8347 224.596 81.1227 224.884 81.336C225.172 81.5493 225.572 81.656 226.084 81.656C226.575 81.656 227.012 81.544 227.396 81.32C227.791 81.096 228.073 80.7653 228.244 80.328L228.58 81.528C228.388 82.0293 228.041 82.4187 227.54 82.696C227.049 82.9733 226.425 83.112 225.668 83.112ZM232.719 83V74.456H236.895C237.93 74.456 238.74 74.648 239.327 75.032C239.924 75.416 240.223 75.96 240.223 76.664C240.223 77.3573 239.946 77.9013 239.391 78.296C238.836 78.68 238.1 78.872 237.183 78.872L237.423 78.376C238.458 78.376 239.226 78.568 239.727 78.952C240.239 79.3253 240.495 79.8747 240.495 80.6C240.495 81.3573 240.212 81.9493 239.647 82.376C239.082 82.792 238.223 83 237.071 83H232.719ZM234.623 81.544H236.911C237.455 81.544 237.866 81.4587 238.143 81.288C238.42 81.1067 238.559 80.8347 238.559 80.472C238.559 80.088 238.431 79.8053 238.175 79.624C237.919 79.4427 237.519 79.352 236.975 79.352H234.623V81.544ZM234.623 78.024H236.719C237.231 78.024 237.615 77.9333 237.871 77.752C238.138 77.56 238.271 77.2933 238.271 76.952C238.271 76.6 238.138 76.3387 237.871 76.168C237.615 75.9973 237.231 75.912 236.719 75.912H234.623V78.024ZM247.809 83V81.272L247.697 80.904V77.88C247.697 77.2933 247.521 76.84 247.169 76.52C246.817 76.1893 246.284 76.024 245.569 76.024C245.089 76.024 244.615 76.0987 244.145 76.248C243.687 76.3973 243.297 76.6053 242.977 76.872L242.193 75.416C242.652 75.064 243.196 74.8027 243.825 74.632C244.465 74.4507 245.127 74.36 245.809 74.36C247.047 74.36 248.001 74.6587 248.673 75.256C249.356 75.8427 249.697 76.7547 249.697 77.992V83H247.809ZM245.121 83.112C244.481 83.112 243.921 83.0053 243.441 82.792C242.961 82.568 242.588 82.264 242.321 81.88C242.065 81.4853 241.937 81.0427 241.937 80.552C241.937 80.072 242.049 79.64 242.273 79.256C242.508 78.872 242.887 78.568 243.409 78.344C243.932 78.12 244.625 78.008 245.489 78.008H247.969V79.336H245.633C244.951 79.336 244.492 79.448 244.257 79.672C244.023 79.8853 243.905 80.152 243.905 80.472C243.905 80.8347 244.049 81.1227 244.337 81.336C244.625 81.5493 245.025 81.656 245.537 81.656C246.028 81.656 246.465 81.544 246.849 81.32C247.244 81.096 247.527 80.7653 247.697 80.328L248.033 81.528C247.841 82.0293 247.495 82.4187 246.993 82.696C246.503 82.9733 245.879 83.112 245.121 83.112ZM252.268 79.288L251.884 71.8H254.252L253.852 79.288H252.268ZM253.068 83.112C252.695 83.112 252.385 82.9893 252.14 82.744C251.895 82.4987 251.772 82.2053 251.772 81.864C251.772 81.5227 251.895 81.2347 252.14 81C252.385 80.7547 252.695 80.632 253.068 80.632C253.441 80.632 253.745 80.7547 253.98 81C254.215 81.2347 254.332 81.5227 254.332 81.864C254.332 82.2053 254.215 82.4987 253.98 82.744C253.745 82.9893 253.441 83.112 253.068 83.112Z" fill="#020109"/>
</g>
<defs>
<filter id="filter0_d_39631_2" x="21" y="18.9999" width="315" height="293" filterUnits="userSpaceOnUse" color-interpolation-filters="sRGB">
<feFlood flood-opacity="0" result="BackgroundImageFix"/>
<feColorMatrix in="SourceAlpha" type="matrix" values="0 0 0 0 0 0 0 0 0 0 0 0 0 0 0 0 0 0 127 0" result="hardAlpha"/>
<feOffset dy="4"/>
<feGaussianBlur stdDeviation="2"/>
<feComposite in2="hardAlpha" operator="out"/>
<feColorMatrix type="matrix" values="0 0 0 0 0 0 0 0 0 0 0 0 0 0 0 0 0 0 0.25 0"/>
<feBlend mode="normal" in2="BackgroundImageFix" result="effect1_dropShadow_39631_2"/>
<feBlend mode="normal" in="SourceGraphic" in2="effect1_dropShadow_39631_2" result="shape"/>
</filter>
<linearGradient id="paint0_linear_39631_2" x1="55.6869" y1="96.4526" x2="278.222" y2="224.933" gradientUnits="userSpaceOnUse">
<stop stop-color="#A5DEFF"/>
<stop offset="1" stop-color="#BDE7FF"/>
</linearGradient>
<radialGradient id="paint1_radial_39631_2" cx="0" cy="0" r="1" gradientUnits="userSpaceOnUse" gradientTransform="translate(3.22694 4.55651) rotate(90) scale(4.55651 3.22694)">
<stop stop-color="#FFBBBB"/>
<stop offset="1" stop-color="#FFBBBB" stop-opacity="0"/>
</radialGradient>
<radialGradient id="paint2_radial_39631_2" cx="0" cy="0" r="1" gradientUnits="userSpaceOnUse" gradientTransform="translate(3.22899 4.55363) rotate(90) scale(4.55363 3.22899)">
<stop stop-color="#FFBBBB"/>
<stop offset="1" stop-color="#FFBBBB" stop-opacity="0"/>
</radialGradient>
</defs>
</svg>
